<?xml version="1.0" standalone="no"?>
<!DOCTYPE svg PUBLIC "-//W3C//DTD SVG 20010904//EN"
 "http://www.w3.org/TR/2001/REC-SVG-20010904/DTD/svg10.dtd">
<svg version="1.0" xmlns="http://www.w3.org/2000/svg"
 width="1072.000000pt" height="1072.000000pt" viewBox="0 0 1072.000000 1072.000000"
 preserveAspectRatio="xMidYMid meet">
<metadata>
Created by potrace 1.11, written by Peter Selinger 2001-2013
</metadata>
<g transform="translate(0.000000,1072.000000) scale(0.100000,-0.100000)"
fill="#000000" stroke="none">
<path d="M5099 9576 c-2 -2 -42 -6 -89 -10 -134 -9 -337 -37 -455 -63 -38 -8
-83 -17 -100 -19 -53 -8 -327 -84 -435 -121 -1076 -363 -1956 -1135 -2454
-2153 -266 -543 -410 -1126 -428 -1727 l-2 -71 -141 -38 c-77 -20 -143 -40
-147 -43 -4 -4 9 -67 28 -141 20 -74 38 -142 40 -150 2 -8 12 -49 23 -90 27
-97 27 -96 -12 -103 -17 -4 -124 -31 -237 -62 -113 -31 -212 -58 -220 -60 -35
-7 -378 -100 -431 -116 l-36 -11 146 -143 c80 -78 233 -227 340 -331 107 -104
253 -246 324 -316 l130 -127 -23 -88 c-12 -48 -28 -106 -35 -128 -20 -63 -39
-130 -125 -440 -45 -159 -102 -359 -126 -442 -45 -157 -50 -178 -36 -169 5 3
19 7 33 10 13 3 92 23 174 46 83 22 161 43 175 46 14 2 36 8 50 13 14 5 70 21
125 35 55 14 268 71 474 127 205 55 374 99 375 97 19 -28 150 -186 215 -258
178 -196 333 -340 576 -533 185 -147 499 -339 748 -457 583 -277 1183 -411
1832 -408 242 1 308 5 535 34 316 40 717 141 965 244 11 4 39 15 62 24 116 43
385 174 534 261 199 115 481 312 604 422 12 10 59 52 105 93 260 231 499 508
696 805 124 188 180 287 284 500 149 306 239 561 324 925 50 212 92 551 98
786 l2 71 132 37 c73 20 139 36 148 36 9 0 16 3 16 8 0 13 -118 451 -124 461
-6 9 9 17 51 26 10 2 153 40 318 85 165 44 343 92 395 106 52 14 119 32 147
41 l53 16 -38 35 c-20 19 -167 161 -325 316 -159 155 -354 345 -435 422 l-146
142 23 83 c12 46 45 163 73 259 27 96 51 180 52 185 2 6 6 24 11 40 4 17 13
50 21 75 19 63 160 570 168 601 l6 27 -73 -20 c-39 -11 -130 -35 -202 -54
-130 -35 -185 -50 -368 -99 -54 -15 -106 -28 -115 -30 -9 -2 -57 -15 -107 -29
-141 -38 -244 -66 -320 -86 -38 -10 -105 -28 -149 -40 -43 -11 -79 -19 -80
-18 -8 12 -137 170 -161 197 -277 313 -524 531 -845 746 -225 150 -412 254
-630 349 -47 21 -99 44 -117 52 -151 68 -484 171 -703 218 -123 27 -140 30
-240 45 -103 16 -131 19 -195 26 -33 4 -73 9 -90 12 -36 6 -630 14 -636 9z"/>
</g>
</svg>
