<?xml version="1.0" encoding="UTF-8" standalone="no"?>
<svg
   xmlns:dc="http://purl.org/dc/elements/1.1/"
   xmlns:cc="http://creativecommons.org/ns#"
   xmlns:rdf="http://www.w3.org/1999/02/22-rdf-syntax-ns#"
   xmlns:svg="http://www.w3.org/2000/svg"
   xmlns="http://www.w3.org/2000/svg"
   xmlns:sodipodi="http://sodipodi.sourceforge.net/DTD/sodipodi-0.dtd"
   xmlns:inkscape="http://www.inkscape.org/namespaces/inkscape"
   sodipodi:docname="companyLogo - Full Text.svg"
   inkscape:version="1.0 (4035a4fb49, 2020-05-01)"
   id="svg962"
   version="1.1"
   viewBox="0 0 328.15716 258.53955"
   height="977.15735"
   width="1240.2812">
  <defs
     id="defs956">
    <rect
       x="90.301476"
       y="60.321365"
       width="108.51143"
       height="65.481033"
       id="rect871" />
    <pattern
       y="0"
       x="0"
       height="6"
       width="6"
       patternUnits="userSpaceOnUse"
       id="EMFhbasepattern" />
  </defs>
  <sodipodi:namedview
     inkscape:window-maximized="1"
     inkscape:window-y="22"
     inkscape:window-x="-8"
     inkscape:window-height="1027"
     inkscape:window-width="1920"
     fit-margin-bottom="0"
     fit-margin-right="0"
     fit-margin-left="0"
     fit-margin-top="0"
     showgrid="false"
     inkscape:document-rotation="0"
     inkscape:current-layer="layer1"
     inkscape:document-units="mm"
     inkscape:cy="153.44738"
     inkscape:cx="86.892364"
     inkscape:zoom="0.70710678"
     inkscape:pageshadow="2"
     inkscape:pageopacity="0.0"
     borderopacity="1.0"
     bordercolor="#666666"
     pagecolor="#ffffff"
     id="base"
     units="px" />
  <metadata
     id="metadata959">
    <rdf:RDF>
      <cc:Work
         rdf:about="">
        <dc:format>image/svg+xml</dc:format>
        <dc:type
           rdf:resource="http://purl.org/dc/dcmitype/StillImage" />
        <dc:title></dc:title>
      </cc:Work>
    </rdf:RDF>
  </metadata>
  <g
     transform="translate(-44.265284,-63.816895)"
     id="layer1"
     inkscape:groupmode="layer"
     inkscape:label="Layer 1">
    <text
       xml:space="preserve"
       id="text869"
       style="font-style:normal;font-weight:normal;font-size:10.5833px;line-height:1.25;font-family:sans-serif;white-space:pre;shape-inside:url(#rect871);fill:#000000;fill-opacity:1;stroke:none;" />
    <g
       id="g1060">
      <g
         id="g1038"
         transform="translate(-2.2450764,24.961829)">
        <path
           id="use1661"
           style="fill:none;fill-opacity:1;stroke:#000000;stroke-width:6.42223;stroke-miterlimit:4;stroke-dasharray:none;stroke-opacity:1"
           d="M 192.57998,130.58989 A 63.561872,63.561872 0 0 1 129.0181,194.15176 63.561872,63.561872 0 0 1 65.456225,130.58989 63.561872,63.561872 0 0 1 129.0181,67.028012 63.561872,63.561872 0 0 1 192.57998,130.58989" />
        <path
           id="use1663"
           style="fill:none;fill-opacity:1;stroke:#000000;stroke-width:6.42223;stroke-miterlimit:4;stroke-dasharray:none;stroke-opacity:1"
           d="m 128.7946,67.028236 a 63.561872,63.561872 0 0 0 -63.338282,63.561684 63.561872,63.561872 0 0 0 63.561712,63.56171 63.561872,63.561872 0 0 0 63.5617,-63.56171 63.561872,63.561872 0 0 0 -63.5617,-63.561684 63.561872,63.561872 0 0 0 -0.22348,0 z m 0.007,2.803638 a 60.757573,60.757573 0 0 1 0.2167,0 60.757573,60.757573 0 0 1 60.75806,60.758046 A 60.757573,60.757573 0 0 1 129.0183,191.34664 60.757573,60.757573 0 0 1 68.260224,130.58992 60.757573,60.757573 0 0 1 128.8016,69.831874 Z" />
        <path
           id="use1665"
           style="fill:none;stroke:#000000;stroke-width:6.42223;stroke-miterlimit:4;stroke-dasharray:none;stroke-opacity:1"
           d="M 170.20911,130.58989 A 41.191062,41.191062 0 0 1 129.01804,171.78095 41.191062,41.191062 0 0 1 87.826983,130.58989 41.191062,41.191062 0 0 1 129.01804,89.398824 41.191062,41.191062 0 0 1 170.20911,130.58989" />
        <path
           id="use1667"
           style="fill:none;stroke:#000000;stroke-width:6.42223;stroke-miterlimit:4;stroke-dasharray:none;stroke-opacity:1"
           d="M 181.43449,130.58989 A 52.416448,52.416448 0 0 1 129.01804,183.00633 52.416448,52.416448 0 0 1 76.6016,130.58989 52.416448,52.416448 0 0 1 129.01804,78.173437 52.416448,52.416448 0 0 1 181.43449,130.58989" />
        <circle
           r="63.561874"
           cy="130.58989"
           cx="129.01814"
           id="use1625"
           style="fill:#bdc3c7;fill-opacity:1;stroke:none;stroke-width:2.86765;stroke-miterlimit:4;stroke-dasharray:none;stroke-opacity:1" />
        <path
           id="use1627"
           style="fill:#96a5a6;fill-opacity:1;stroke:#96a5a6;stroke-width:2.86765;stroke-miterlimit:4;stroke-dasharray:none;stroke-opacity:1"
           d="m 128.79468,67.028241 a 63.561872,63.561872 0 0 0 -63.338287,63.561679 63.561872,63.561872 0 0 0 63.561707,63.56171 63.561872,63.561872 0 0 0 63.56171,-63.56171 63.561872,63.561872 0 0 0 -63.56171,-63.561679 63.561872,63.561872 0 0 0 -0.22348,0 z m 0.007,2.803639 a 60.757573,60.757573 0 0 1 0.2167,0 60.757573,60.757573 0 0 1 60.75808,60.75804 60.757573,60.757573 0 0 1 -60.75808,60.75672 60.757573,60.757573 0 0 1 -60.758062,-60.75672 60.757573,60.757573 0 0 1 60.541362,-60.75804 z" />
        <circle
           style="fill:none;stroke:#96a5a6;stroke-width:6.20154;stroke-miterlimit:4;stroke-dasharray:none;stroke-opacity:1"
           id="use1629"
           cx="129.01808"
           cy="130.58989"
           r="41.191063" />
        <circle
           r="52.416447"
           cy="130.58989"
           cx="129.01808"
           id="use1631"
           style="fill:none;stroke:#96a5a6;stroke-width:6.28573;stroke-miterlimit:4;stroke-dasharray:none;stroke-opacity:1" />
        <text
           id="text904"
           y="71.314842"
           x="143.5486"
           style="font-style:normal;font-variant:normal;font-weight:normal;font-stretch:normal;font-size:7.34997px;line-height:125%;font-family:Calibri;-inkscape-font-specification:'Calibri, Normal';font-variant-ligatures:normal;font-variant-caps:normal;font-variant-numeric:normal;font-variant-east-asian:normal;text-align:start;letter-spacing:0px;word-spacing:0px;text-anchor:start;fill:#000000;fill-opacity:1;stroke:none;stroke-width:0.172265"
           xml:space="preserve"><tspan
             id="tspan902"
             y="71.314842"
             x="143.5486"
             sodipodi:role="line"
             style="font-style:normal;font-variant:normal;font-weight:normal;font-stretch:normal;font-size:7.34997px;font-family:Calibri;-inkscape-font-specification:'Calibri, Normal';font-variant-ligatures:normal;font-variant-caps:normal;font-variant-numeric:normal;font-variant-east-asian:normal;stroke-width:0.172265"><tspan
               id="tspan900"
               style="font-style:normal;font-variant:normal;font-weight:normal;font-stretch:normal;font-size:7.34997px;font-family:Calibri;-inkscape-font-specification:'Calibri, Normal';font-variant-ligatures:normal;font-variant-caps:normal;font-variant-numeric:normal;font-variant-east-asian:normal;fill:#000000;stroke-width:0.172265"
               dy="0"
               dx="0"> </tspan></tspan></text>
      </g>
      <g
         id="g1025"
         transform="translate(-2.2450674,5.612659)">
        <g
           transform="matrix(1.0559487,0.20880351,0.2088035,1.7792653,-34.486022,-109.35441)"
           id="g173">
          <path
             id="path1578"
             d="m 175.28798,93.67898 1.87671,7.00398 -117.533881,31.49313 2.004822,7.48211 -13.984704,3.74719 13.492577,13.13452 -5.117652,18.12111 26.722372,-7.16023 -1.876978,-7.00494 117.533904,-31.49311 -2.00456,-7.48119 13.98467,-3.74718 -13.49256,-13.13451 5.11765,-18.121108 z"
             style="color:#000000;font-style:normal;font-variant:normal;font-weight:normal;font-stretch:normal;font-size:medium;line-height:normal;font-family:sans-serif;font-variant-ligatures:normal;font-variant-position:normal;font-variant-caps:normal;font-variant-numeric:normal;font-variant-alternates:normal;font-variant-east-asian:normal;font-feature-settings:normal;font-variation-settings:normal;text-indent:0;text-align:start;text-decoration:none;text-decoration-line:none;text-decoration-style:solid;text-decoration-color:#000000;letter-spacing:normal;word-spacing:normal;text-transform:none;writing-mode:lr-tb;direction:ltr;text-orientation:mixed;dominant-baseline:auto;baseline-shift:baseline;text-anchor:start;white-space:normal;shape-padding:0;shape-margin:0;inline-size:0;clip-rule:nonzero;display:inline;overflow:visible;visibility:visible;isolation:auto;mix-blend-mode:normal;color-interpolation:sRGB;color-interpolation-filters:linearRGB;solid-color:#000000;solid-opacity:1;vector-effect:none;fill:#3daee9;fill-opacity:1;fill-rule:nonzero;stroke:none;stroke-width:3.45812;stroke-linecap:butt;stroke-linejoin:miter;stroke-miterlimit:4;stroke-dasharray:none;stroke-dashoffset:0;stroke-opacity:1;color-rendering:auto;image-rendering:auto;shape-rendering:auto;text-rendering:auto;enable-background:accumulate;stop-color:#000000" />
          <path
             id="path1580"
             style="color:#000000;font-style:normal;font-variant:normal;font-weight:normal;font-stretch:normal;font-size:medium;line-height:normal;font-family:sans-serif;font-variant-ligatures:normal;font-variant-position:normal;font-variant-caps:normal;font-variant-numeric:normal;font-variant-alternates:normal;font-variant-east-asian:normal;font-feature-settings:normal;font-variation-settings:normal;text-indent:0;text-align:start;text-decoration:none;text-decoration-line:none;text-decoration-style:solid;text-decoration-color:#000000;letter-spacing:normal;word-spacing:normal;text-transform:none;writing-mode:lr-tb;direction:ltr;text-orientation:mixed;dominant-baseline:auto;baseline-shift:baseline;text-anchor:start;white-space:normal;shape-padding:0;shape-margin:0;inline-size:0;clip-rule:nonzero;display:inline;overflow:visible;visibility:visible;isolation:auto;mix-blend-mode:normal;color-interpolation:sRGB;color-interpolation-filters:linearRGB;solid-color:#000000;solid-opacity:1;vector-effect:none;fill:#000000;fill-opacity:1;fill-rule:nonzero;stroke:none;stroke-width:3.45812;stroke-linecap:butt;stroke-linejoin:miter;stroke-miterlimit:4;stroke-dasharray:none;stroke-dashoffset:0;stroke-opacity:1;color-rendering:auto;image-rendering:auto;shape-rendering:auto;text-rendering:auto;enable-background:accumulate;stop-color:#000000"
             d="m 173.17032,92.456347 0.44751,1.670134 1.42919,5.33385 -117.533884,31.493109 2.004822,7.48212 -15.253138,4.08706 14.934526,14.53822 -5.664579,20.05773 31.33113,-8.39517 -1.876978,-7.00492 117.533901,-31.4931 -2.00458,-7.48119 15.25314,-4.08708 -14.93452,-14.5382 5.66458,-20.057729 z m 2.11766,1.222633 26.72237,-7.160247 -5.11765,18.121107 13.49258,13.13453 -13.98471,3.74718 2.00458,7.48119 -117.533885,31.49311 -13.207407,3.53892 15.084366,3.466 -26.722372,7.16025 5.117652,-18.12111 -13.492577,-13.13454 13.984704,-3.74717 -2.004822,-7.48213 117.533881,-31.49311 12.73767,-3.413046 z"
             sodipodi:nodetypes="ccccccccccccccccccccccccccccccccc" />
        </g>
        <text
           transform="rotate(-15)"
           id="text177"
           y="162.46953"
           x="84.517151"
           style="font-style:normal;font-variant:normal;font-weight:bold;font-stretch:normal;font-size:16.9333px;line-height:1.25;font-family:Ubuntu;-inkscape-font-specification:'Ubuntu, Bold';font-variant-ligatures:normal;font-variant-caps:normal;font-variant-numeric:normal;font-variant-east-asian:normal;text-align:center;text-anchor:middle;fill:#ffffff;fill-opacity:1;stroke:#000000;stroke-width:1.05833;stroke-miterlimit:4;stroke-dasharray:none"
           xml:space="preserve"><tspan
             style="font-style:normal;font-variant:normal;font-weight:bold;font-stretch:normal;font-size:16.9333px;font-family:Ubuntu;-inkscape-font-specification:'Ubuntu, Bold';font-variant-ligatures:normal;font-variant-caps:normal;font-variant-numeric:normal;font-variant-east-asian:normal;text-align:center;text-anchor:middle;fill:#ffffff;stroke:#000000;stroke-width:1.05833;stroke-miterlimit:4;stroke-dasharray:none"
             y="162.46953"
             x="84.517151"
             id="tspan175"
             sodipodi:role="line">DE-CAN-IT</tspan><tspan
             id="tspan183"
             style="font-style:normal;font-variant:normal;font-weight:bold;font-stretch:normal;font-size:16.9333px;font-family:Ubuntu;-inkscape-font-specification:'Ubuntu, Bold';font-variant-ligatures:normal;font-variant-caps:normal;font-variant-numeric:normal;font-variant-east-asian:normal;text-align:center;text-anchor:middle;fill:#ffffff;stroke:#000000;stroke-width:1.05833;stroke-miterlimit:4;stroke-dasharray:none"
             y="183.63615"
             x="84.517151"
             sodipodi:role="line">ELECTRIC CAN </tspan><tspan
             id="tspan187"
             style="font-style:normal;font-variant:normal;font-weight:bold;font-stretch:normal;font-size:16.9333px;font-family:Ubuntu;-inkscape-font-specification:'Ubuntu, Bold';font-variant-ligatures:normal;font-variant-caps:normal;font-variant-numeric:normal;font-variant-east-asian:normal;text-align:center;text-anchor:middle;fill:#ffffff;stroke:#000000;stroke-width:1.05833;stroke-miterlimit:4;stroke-dasharray:none"
             y="204.80278"
             x="84.517151"
             sodipodi:role="line">OPENERS INC.</tspan></text>
      </g>
    </g>
  </g>
</svg>
