<?xml version="1.0" encoding="UTF-8" standalone="no"?>
<svg
   xmlns:dc="http://purl.org/dc/elements/1.1/"
   xmlns:cc="http://creativecommons.org/ns#"
   xmlns:rdf="http://www.w3.org/1999/02/22-rdf-syntax-ns#"
   xmlns:svg="http://www.w3.org/2000/svg"
   xmlns="http://www.w3.org/2000/svg"
   xmlns:sodipodi="http://sodipodi.sourceforge.net/DTD/sodipodi-0.dtd"
   xmlns:inkscape="http://www.inkscape.org/namespaces/inkscape"
   sodipodi:docname="companyLogo.svg"
   inkscape:version="1.0 (4035a4fb49, 2020-05-01)"
   id="svg962"
   version="1.1"
   viewBox="0 0 90.783257 71.52372"
   height="71.52372mm"
   width="90.783257mm">
  <defs
     id="defs956" />
  <sodipodi:namedview
     inkscape:window-maximized="1"
     inkscape:window-y="22"
     inkscape:window-x="1912"
     inkscape:window-height="1027"
     inkscape:window-width="1920"
     fit-margin-bottom="0"
     fit-margin-right="0"
     fit-margin-left="0"
     fit-margin-top="0"
     showgrid="false"
     inkscape:document-rotation="0"
     inkscape:current-layer="layer1"
     inkscape:document-units="mm"
     inkscape:cy="495.7904"
     inkscape:cx="-144.85779"
     inkscape:zoom="0.35"
     inkscape:pageshadow="2"
     inkscape:pageopacity="0.0"
     borderopacity="1.0"
     bordercolor="#666666"
     pagecolor="#ffffff"
     id="base" />
  <metadata
     id="metadata959">
    <rdf:RDF>
      <cc:Work
         rdf:about="">
        <dc:format>image/svg+xml</dc:format>
        <dc:type
           rdf:resource="http://purl.org/dc/dcmitype/StillImage" />
        <dc:title></dc:title>
      </cc:Work>
    </rdf:RDF>
  </metadata>
  <g
     transform="translate(-252.53419,-90.522822)"
     id="layer1"
     inkscape:groupmode="layer"
     inkscape:label="Layer 1">
    <g
       id="g1682">
      <g
         id="g1673"
         style="fill:none;stroke:#000000;stroke-width:3.43958;stroke-miterlimit:4;stroke-dasharray:none"
         transform="translate(520.35923,59.832151)">
        <path
           id="use1661"
           style="fill:none;fill-opacity:1;stroke:#000000;stroke-width:3.43958;stroke-miterlimit:4;stroke-dasharray:none;stroke-opacity:1"
           d="m -188.39134,66.45253 a 34.042068,34.042068 0 0 1 -34.04207,34.04207 34.042068,34.042068 0 0 1 -34.04207,-34.04207 34.042068,34.042068 0 0 1 34.04207,-34.042069 34.042068,34.042068 0 0 1 34.04207,34.042069" />
        <path
           id="use1663"
           style="fill:none;fill-opacity:1;stroke:#000000;stroke-width:3.43958;stroke-miterlimit:4;stroke-dasharray:none;stroke-opacity:1"
           d="m -222.55311,32.410581 a 34.042068,34.042068 0 0 0 -33.92232,34.041967 34.042068,34.042068 0 0 0 34.04198,34.041982 34.042068,34.042068 0 0 0 34.04198,-34.041982 34.042068,34.042068 0 0 0 -34.04198,-34.041967 34.042068,34.042068 0 0 0 -0.11969,0 z m 0.004,1.501555 a 32.540159,32.540159 0 0 1 0.11606,0 32.540159,32.540159 0 0 1 32.54042,32.540412 32.540159,32.540159 0 0 1 -32.54042,32.539702 32.540159,32.540159 0 0 1 -32.54043,-32.539702 32.540159,32.540159 0 0 1 32.42437,-32.540412 z" />
        <path
           id="use1665"
           style="fill:none;stroke:#000000;stroke-width:3.43958;stroke-miterlimit:4;stroke-dasharray:none;stroke-opacity:1"
           d="m -200.37259,66.45253 a 22.06085,22.06085 0 0 1 -22.06085,22.06085 22.06085,22.06085 0 0 1 -22.06085,-22.06085 22.06085,22.06085 0 0 1 22.06085,-22.06085 22.06085,22.06085 0 0 1 22.06085,22.06085" />
        <path
           id="use1667"
           style="fill:none;stroke:#000000;stroke-width:3.43958;stroke-miterlimit:4;stroke-dasharray:none;stroke-opacity:1"
           d="m -194.36057,66.45253 a 28.072872,28.072872 0 0 1 -28.07287,28.072872 28.072872,28.072872 0 0 1 -28.07287,-28.072872 28.072872,28.072872 0 0 1 28.07287,-28.072872 28.072872,28.072872 0 0 1 28.07287,28.072872" />
      </g>
      <circle
         style="fill:#bdc3c7;fill-opacity:1;stroke:none;stroke-width:1.53584;stroke-miterlimit:4;stroke-dasharray:none;stroke-opacity:1"
         id="use1625"
         cx="297.92584"
         cy="126.28468"
         r="34.042068" />
      <path
         d="m 297.80616,92.242735 a 34.042068,34.042068 0 0 0 -33.92232,34.041965 34.042068,34.042068 0 0 0 34.04198,34.04198 34.042068,34.042068 0 0 0 34.04198,-34.04198 34.042068,34.042068 0 0 0 -34.04198,-34.041965 34.042068,34.042068 0 0 0 -0.11969,0 z m 0.004,1.501555 a 32.540159,32.540159 0 0 1 0.11606,0 32.540159,32.540159 0 0 1 32.54043,32.54041 32.540159,32.540159 0 0 1 -32.54043,32.5397 32.540159,32.540159 0 0 1 -32.54042,-32.5397 32.540159,32.540159 0 0 1 32.42436,-32.54041 z"
         style="fill:#96a5a6;fill-opacity:1;stroke:#96a5a6;stroke-width:1.53584;stroke-miterlimit:4;stroke-dasharray:none;stroke-opacity:1"
         id="use1627" />
      <circle
         r="22.06085"
         cy="126.28468"
         cx="297.92581"
         id="use1629"
         style="fill:none;stroke:#96a5a6;stroke-width:3.32138;stroke-miterlimit:4;stroke-dasharray:none;stroke-opacity:1" />
      <circle
         style="fill:none;stroke:#96a5a6;stroke-width:3.36647;stroke-miterlimit:4;stroke-dasharray:none;stroke-opacity:1"
         id="use1631"
         cx="297.92581"
         cy="126.28468"
         r="28.072872" />
      <path
         id="path1578"
         d="m 322.70675,106.51617 1.00512,3.75115 -62.94806,16.86689 1.07373,4.00722 -7.48984,2.0069 7.22627,7.0345 -2.74088,9.70519 14.3118,-3.83483 -1.00526,-3.75166 62.94807,-16.86688 -1.07359,-4.00673 7.48982,-2.00689 -7.22626,-7.0345 2.74088,-9.70519 z"
         style="color:#000000;font-style:normal;font-variant:normal;font-weight:normal;font-stretch:normal;font-size:medium;line-height:normal;font-family:sans-serif;font-variant-ligatures:normal;font-variant-position:normal;font-variant-caps:normal;font-variant-numeric:normal;font-variant-alternates:normal;font-variant-east-asian:normal;font-feature-settings:normal;font-variation-settings:normal;text-indent:0;text-align:start;text-decoration:none;text-decoration-line:none;text-decoration-style:solid;text-decoration-color:#000000;letter-spacing:normal;word-spacing:normal;text-transform:none;writing-mode:lr-tb;direction:ltr;text-orientation:mixed;dominant-baseline:auto;baseline-shift:baseline;text-anchor:start;white-space:normal;shape-padding:0;shape-margin:0;inline-size:0;clip-rule:nonzero;display:inline;overflow:visible;visibility:visible;isolation:auto;mix-blend-mode:normal;color-interpolation:sRGB;color-interpolation-filters:linearRGB;solid-color:#000000;solid-opacity:1;vector-effect:none;fill:#3daee9;fill-opacity:1;fill-rule:nonzero;stroke:none;stroke-width:1.85208;stroke-linecap:butt;stroke-linejoin:miter;stroke-miterlimit:4;stroke-dasharray:none;stroke-dashoffset:0;stroke-opacity:1;color-rendering:auto;image-rendering:auto;shape-rendering:auto;text-rendering:auto;enable-background:accumulate;stop-color:#000000" />
      <path
         id="path1580"
         style="color:#000000;font-style:normal;font-variant:normal;font-weight:normal;font-stretch:normal;font-size:medium;line-height:normal;font-family:sans-serif;font-variant-ligatures:normal;font-variant-position:normal;font-variant-caps:normal;font-variant-numeric:normal;font-variant-alternates:normal;font-variant-east-asian:normal;font-feature-settings:normal;font-variation-settings:normal;text-indent:0;text-align:start;text-decoration:none;text-decoration-line:none;text-decoration-style:solid;text-decoration-color:#000000;letter-spacing:normal;word-spacing:normal;text-transform:none;writing-mode:lr-tb;direction:ltr;text-orientation:mixed;dominant-baseline:auto;baseline-shift:baseline;text-anchor:start;white-space:normal;shape-padding:0;shape-margin:0;inline-size:0;clip-rule:nonzero;display:inline;overflow:visible;visibility:visible;isolation:auto;mix-blend-mode:normal;color-interpolation:sRGB;color-interpolation-filters:linearRGB;solid-color:#000000;solid-opacity:1;vector-effect:none;fill:#000000;fill-opacity:1;fill-rule:nonzero;stroke:none;stroke-width:1.85208;stroke-linecap:butt;stroke-linejoin:miter;stroke-miterlimit:4;stroke-dasharray:none;stroke-dashoffset:0;stroke-opacity:1;color-rendering:auto;image-rendering:auto;shape-rendering:auto;text-rendering:auto;enable-background:accumulate;stop-color:#000000"
         d="m 321.57259,105.86136 0.23967,0.89448 0.76544,2.85667 -62.94806,16.86688 1.07373,4.00723 -8.16918,2.18892 7.99854,7.78629 -3.0338,10.74239 16.78013,-4.49623 -1.00526,-3.75165 62.94807,-16.86688 -1.0736,-4.00673 8.16918,-2.18893 -7.99854,-7.78628 3.0338,-10.74239 z m 1.13416,0.65481 14.3118,-3.83484 -2.74088,9.70519 7.22627,7.03451 -7.48984,2.00689 1.0736,4.00673 -62.94806,16.86688 -7.07354,1.89535 8.07879,1.8563 -14.3118,3.83484 2.74088,-9.70519 -7.22627,-7.03451 7.48984,-2.00689 -1.07373,-4.00723 62.94806,-16.86688 6.82196,-1.82794 z"
         sodipodi:nodetypes="ccccccccccccccccccccccccccccccccc" />
      <g
         id="g1562"
         transform="rotate(-15,93.741248,-1857.3477)"
         style="fill:#fcfcfc;fill-opacity:1">
        <path
           id="path1544"
           style="font-style:italic;font-variant:normal;font-weight:bold;font-stretch:normal;font-size:14.3979px;line-height:1.25;font-family:Ubuntu;-inkscape-font-specification:'Ubuntu, Bold Italic';font-variant-ligatures:normal;font-variant-caps:normal;font-variant-numeric:normal;font-variant-east-asian:normal;fill:#fcfcfc;fill-opacity:1;stroke:#000000;stroke-width:0.4;stroke-miterlimit:4;stroke-dasharray:none"
           d="m -252.34853,115.1726 q 0.13971,0.0163 0.2794,0.0327 0.15241,0 0.4064,0 0.82551,0 1.48591,-0.32646 0.6731,-0.32646 1.1303,-0.9304 0.46989,-0.62026 0.7239,-1.50169 0.254,-0.89775 0.254,-2.0077 0,-0.5713 -0.1143,-1.02833 -0.1143,-0.47336 -0.381,-0.79982 -0.25401,-0.34278 -0.67311,-0.52233 -0.40639,-0.17955 -0.99059,-0.17955 -0.38101,0 -0.7747,0.049 z m 6.31191,-4.86418 q 0,1.6486 -0.4191,2.95442 -0.4191,1.30582 -1.2065,2.21989 -0.7747,0.89776 -1.8923,1.38745 -1.11761,0.48967 -2.52731,0.48967 -0.5334,0 -1.2319,-0.0816 -0.6985,-0.0816 -1.3462,-0.26116 l 2.0447,-10.91994 q 0.7239,-0.17955 1.3843,-0.24484 0.6731,-0.0816 1.2065,-0.0816 0.93981,0 1.67641,0.32645 0.7493,0.32646 1.2573,0.9304 0.5207,0.60394 0.7874,1.4364 0.2667,0.83247 0.2667,1.84448 z" />
        <path
           id="path1546"
           style="font-style:italic;font-variant:normal;font-weight:bold;font-stretch:normal;font-size:14.3979px;line-height:1.25;font-family:Ubuntu;-inkscape-font-specification:'Ubuntu, Bold Italic';font-variant-ligatures:normal;font-variant-caps:normal;font-variant-numeric:normal;font-variant-east-asian:normal;fill:#fcfcfc;fill-opacity:1;stroke:#000000;stroke-width:0.4;stroke-miterlimit:4;stroke-dasharray:none"
           d="m -245.53179,117.21295 2.1082,-11.31168 h 5.75311 l -0.4064,2.08932 h -3.77191 l -0.40639,2.28518 h 3.3274 l -0.3937,2.05667 h -3.32741 l -0.508,2.77487 h 4.06401 l -0.4064,2.10564 z" />
        <path
           id="path1548"
           style="font-style:italic;font-variant:normal;font-weight:bold;font-stretch:normal;font-size:14.3979px;line-height:1.25;font-family:Ubuntu;-inkscape-font-specification:'Ubuntu, Bold Italic';font-variant-ligatures:normal;font-variant-caps:normal;font-variant-numeric:normal;font-variant-east-asian:normal;fill:#fcfcfc;fill-opacity:1;stroke:#000000;stroke-width:0.4;stroke-miterlimit:4;stroke-dasharray:none"
           d="m -237.59745,111.23882 h 3.683 l -0.4191,2.20357 h -3.683 z" />
        <path
           id="path1550"
           style="font-style:italic;font-variant:normal;font-weight:bold;font-stretch:normal;font-size:14.3979px;line-height:1.25;font-family:Ubuntu;-inkscape-font-specification:'Ubuntu, Bold Italic';font-variant-ligatures:normal;font-variant-caps:normal;font-variant-numeric:normal;font-variant-east-asian:normal;fill:#fcfcfc;fill-opacity:1;stroke:#000000;stroke-width:0.4;stroke-miterlimit:4;stroke-dasharray:none"
           d="m -226.78021,116.72326 q -0.5207,0.32646 -1.1557,0.52234 -0.635,0.19587 -1.5494,0.19587 -0.7874,0 -1.4478,-0.32646 -0.64771,-0.34277 -1.11761,-0.96304 -0.4572,-0.62026 -0.7112,-1.5017 -0.254,-0.89774 -0.254,-2.00769 0,-1.27318 0.3429,-2.53003 0.35561,-1.25686 1.0287,-2.23622 0.6858,-0.99569 1.66371,-1.61596 0.9906,-0.62026 2.2733,-0.62026 0.6096,0 1.19381,0.17955 0.5969,0.17955 1.24459,0.63659 l -0.71119,1.97505 q -0.5334,-0.3591 -0.9525,-0.48968 -0.41911,-0.13058 -0.90171,-0.13058 -0.7239,0 -1.3081,0.37542 -0.57151,0.37542 -0.99061,1.02833 -0.4064,0.63659 -0.62229,1.48538 -0.21591,0.84878 -0.21591,1.7955 0,1.4364 0.4826,2.08931 0.49531,0.65292 1.40971,0.65292 0.6096,0 1.1176,-0.16323 0.5207,-0.16323 0.96521,-0.4244 z" />
        <path
           id="path1552"
           style="font-style:italic;font-variant:normal;font-weight:bold;font-stretch:normal;font-size:14.3979px;line-height:1.25;font-family:Ubuntu;-inkscape-font-specification:'Ubuntu, Bold Italic';font-variant-ligatures:normal;font-variant-caps:normal;font-variant-numeric:normal;font-variant-east-asian:normal;fill:#fcfcfc;fill-opacity:1;stroke:#000000;stroke-width:0.4;stroke-miterlimit:4;stroke-dasharray:none"
           d="m -219.58644,117.21295 q -0.0254,-0.63659 -0.0635,-1.24053 -0.0254,-0.62027 -0.0635,-1.22421 h -3.302 q -0.254,0.60394 -0.5334,1.22421 -0.27941,0.60394 -0.53341,1.24053 h -2.07009 q 0.82549,-1.82815 1.53669,-3.37881 0.7239,-1.55067 1.3843,-2.92178 0.67311,-1.37111 1.30811,-2.59532 0.635,-1.24053 1.2954,-2.41577 h 1.7653 q 0.20321,1.17524 0.38101,2.61164 0.1905,1.42009 0.34289,2.92178 0.1651,1.48537 0.2921,2.98707 0.13971,1.48537 0.25401,2.79119 z m -0.5842,-8.83062 q -0.53341,1.09363 -1.0541,2.17093 -0.50801,1.0773 -0.99061,2.20357 h 2.37491 q -0.0635,-0.99568 -0.1397,-2.12196 -0.0635,-1.12627 -0.1905,-2.25254 z" />
        <path
           id="path1554"
           style="font-style:italic;font-variant:normal;font-weight:bold;font-stretch:normal;font-size:14.3979px;line-height:1.25;font-family:Ubuntu;-inkscape-font-specification:'Ubuntu, Bold Italic';font-variant-ligatures:normal;font-variant-caps:normal;font-variant-numeric:normal;font-variant-east-asian:normal;fill:#fcfcfc;fill-opacity:1;stroke:#000000;stroke-width:0.4;stroke-miterlimit:4;stroke-dasharray:none"
           d="m -210.46743,117.21295 q -0.5334,-1.92609 -1.1938,-3.85217 -0.6477,-1.92609 -1.4097,-3.63998 l -1.39701,7.49215 h -1.9431 l 2.1082,-11.31168 h 1.5113 q 0.29211,0.5713 0.62231,1.35479 0.3429,0.76717 0.6985,1.66492 0.3556,0.89776 0.7112,1.87712 0.3556,0.96305 0.67311,1.90977 l 1.2573,-6.8066 h 1.96849 l -2.1209,11.31168 z" />
        <path
           id="path1556"
           style="font-style:italic;font-variant:normal;font-weight:bold;font-stretch:normal;font-size:14.3979px;line-height:1.25;font-family:Ubuntu;-inkscape-font-specification:'Ubuntu, Bold Italic';font-variant-ligatures:normal;font-variant-caps:normal;font-variant-numeric:normal;font-variant-east-asian:normal;fill:#fcfcfc;fill-opacity:1;stroke:#000000;stroke-width:0.4;stroke-miterlimit:4;stroke-dasharray:none"
           d="m -206.59154,111.23882 h 3.68301 l -0.4191,2.20357 h -3.68301 z" />
        <path
           id="path1558"
           style="font-style:italic;font-variant:normal;font-weight:bold;font-stretch:normal;font-size:14.3979px;line-height:1.25;font-family:Ubuntu;-inkscape-font-specification:'Ubuntu, Bold Italic';font-variant-ligatures:normal;font-variant-caps:normal;font-variant-numeric:normal;font-variant-east-asian:normal;fill:#fcfcfc;fill-opacity:1;stroke:#000000;stroke-width:0.4;stroke-miterlimit:4;stroke-dasharray:none"
           d="m -200.51141,105.90127 h 1.98121 l -2.1209,11.31168 h -1.96851 z" />
        <path
           id="path1560"
           style="font-style:italic;font-variant:normal;font-weight:bold;font-stretch:normal;font-size:14.3979px;line-height:1.25;font-family:Ubuntu;-inkscape-font-specification:'Ubuntu, Bold Italic';font-variant-ligatures:normal;font-variant-caps:normal;font-variant-numeric:normal;font-variant-east-asian:normal;fill:#fcfcfc;fill-opacity:1;stroke:#000000;stroke-width:0.4;stroke-miterlimit:4;stroke-dasharray:none"
           d="m -190.21804,105.90127 -0.4064,2.13828 h -2.5781 l -1.7145,9.1734 h -1.9812 l 1.71449,-9.1734 h -2.5781 l 0.4064,-2.13828 z" />
      </g>
    </g>
  </g>
</svg>
