<?xml version="1.0" encoding="UTF-8" standalone="no"?>
<svg
   xmlns:dc="http://purl.org/dc/elements/1.1/"
   xmlns:cc="http://creativecommons.org/ns#"
   xmlns:rdf="http://www.w3.org/1999/02/22-rdf-syntax-ns#"
   xmlns:svg="http://www.w3.org/2000/svg"
   xmlns="http://www.w3.org/2000/svg"
   xmlns:sodipodi="http://sodipodi.sourceforge.net/DTD/sodipodi-0.dtd"
   xmlns:inkscape="http://www.inkscape.org/namespaces/inkscape"
   width="69.984634mm"
   height="17.14011mm"
   viewBox="0 0 69.984636 17.14011"
   version="1.1"
   id="svg962"
   inkscape:version="1.0 (4035a4fb49, 2020-05-01)"
   sodipodi:docname="Specials.svg">
  <defs
     id="defs956">
    <rect
       id="rect172"
       height="21.247927"
       width="83.521729"
       y="147.18396"
       x="374.14182" />
  </defs>
  <sodipodi:namedview
     id="base"
     pagecolor="#ffffff"
     bordercolor="#666666"
     borderopacity="1.0"
     inkscape:pageopacity="0.0"
     inkscape:pageshadow="2"
     inkscape:zoom="0.98994949"
     inkscape:cx="150.28343"
     inkscape:cy="26.332269"
     inkscape:document-units="mm"
     inkscape:current-layer="layer1"
     inkscape:document-rotation="0"
     showgrid="false"
     fit-margin-top="0"
     fit-margin-left="0"
     fit-margin-right="0"
     fit-margin-bottom="0"
     inkscape:window-width="1920"
     inkscape:window-height="1027"
     inkscape:window-x="-8"
     inkscape:window-y="22"
     inkscape:window-maximized="1" />
  <metadata
     id="metadata959">
    <rdf:RDF>
      <cc:Work
         rdf:about="">
        <dc:format>image/svg+xml</dc:format>
        <dc:type
           rdf:resource="http://purl.org/dc/dcmitype/StillImage" />
        <dc:title></dc:title>
      </cc:Work>
    </rdf:RDF>
  </metadata>
  <g
     inkscape:label="Layer 1"
     inkscape:groupmode="layer"
     id="layer1"
     transform="translate(-369.61046,-119.14364)">
    <g
       id="g1673"
       style="fill:none;stroke:#000000;stroke-width:3.43958;stroke-miterlimit:4;stroke-dasharray:none"
       transform="translate(520.35923,59.832151)">
      <path
         id="use1661"
         style="fill:none;fill-opacity:1;stroke:#000000;stroke-width:3.43958;stroke-miterlimit:4;stroke-dasharray:none;stroke-opacity:1"
         d="m -188.39134,66.45253 a 34.042068,34.042068 0 0 1 -34.04207,34.04207 34.042068,34.042068 0 0 1 -34.04207,-34.04207 34.042068,34.042068 0 0 1 34.04207,-34.042069 34.042068,34.042068 0 0 1 34.04207,34.042069" />
      <path
         id="use1663"
         style="fill:none;fill-opacity:1;stroke:#000000;stroke-width:3.43958;stroke-miterlimit:4;stroke-dasharray:none;stroke-opacity:1"
         d="m -222.55311,32.410581 a 34.042068,34.042068 0 0 0 -33.92232,34.041967 34.042068,34.042068 0 0 0 34.04198,34.041982 34.042068,34.042068 0 0 0 34.04198,-34.041982 34.042068,34.042068 0 0 0 -34.04198,-34.041967 34.042068,34.042068 0 0 0 -0.11969,0 z m 0.004,1.501555 a 32.540159,32.540159 0 0 1 0.11606,0 32.540159,32.540159 0 0 1 32.54042,32.540412 32.540159,32.540159 0 0 1 -32.54042,32.539702 32.540159,32.540159 0 0 1 -32.54043,-32.539702 32.540159,32.540159 0 0 1 32.42437,-32.540412 z" />
      <path
         id="use1665"
         style="fill:none;stroke:#000000;stroke-width:3.43958;stroke-miterlimit:4;stroke-dasharray:none;stroke-opacity:1"
         d="m -200.37259,66.45253 a 22.06085,22.06085 0 0 1 -22.06085,22.06085 22.06085,22.06085 0 0 1 -22.06085,-22.06085 22.06085,22.06085 0 0 1 22.06085,-22.06085 22.06085,22.06085 0 0 1 22.06085,22.06085" />
      <path
         id="use1667"
         style="fill:none;stroke:#000000;stroke-width:3.43958;stroke-miterlimit:4;stroke-dasharray:none;stroke-opacity:1"
         d="m -194.36057,66.45253 a 28.072872,28.072872 0 0 1 -28.07287,28.072872 28.072872,28.072872 0 0 1 -28.07287,-28.072872 28.072872,28.072872 0 0 1 28.07287,-28.072872 28.072872,28.072872 0 0 1 28.07287,28.072872" />
    </g>
    <circle
       style="fill:#bdc3c7;fill-opacity:1;stroke:none;stroke-width:1.53584;stroke-miterlimit:4;stroke-dasharray:none;stroke-opacity:1"
       id="use1625"
       cx="297.92584"
       cy="126.28468"
       r="34.042068" />
    <path
       d="m 297.80616,92.242735 a 34.042068,34.042068 0 0 0 -33.92232,34.041965 34.042068,34.042068 0 0 0 34.04198,34.04198 34.042068,34.042068 0 0 0 34.04198,-34.04198 34.042068,34.042068 0 0 0 -34.04198,-34.041965 34.042068,34.042068 0 0 0 -0.11969,0 z m 0.004,1.501555 a 32.540159,32.540159 0 0 1 0.11606,0 32.540159,32.540159 0 0 1 32.54043,32.54041 32.540159,32.540159 0 0 1 -32.54043,32.5397 32.540159,32.540159 0 0 1 -32.54042,-32.5397 32.540159,32.540159 0 0 1 32.42436,-32.54041 z"
       style="fill:#96a5a6;fill-opacity:1;stroke:#96a5a6;stroke-width:1.53584;stroke-miterlimit:4;stroke-dasharray:none;stroke-opacity:1"
       id="use1627" />
    <circle
       r="22.06085"
       cy="126.28468"
       cx="297.92581"
       id="use1629"
       style="fill:none;stroke:#96a5a6;stroke-width:3.32138;stroke-miterlimit:4;stroke-dasharray:none;stroke-opacity:1" />
    <circle
       style="fill:none;stroke:#96a5a6;stroke-width:3.36647;stroke-miterlimit:4;stroke-dasharray:none;stroke-opacity:1"
       id="use1631"
       cx="297.92581"
       cy="126.28468"
       r="28.072872" />
    <text
       style="font-style:normal;font-weight:normal;font-size:10.5833px;line-height:1.25;font-family:sans-serif;white-space:pre;shape-inside:url(#rect172);fill:#000000;fill-opacity:1;stroke:none;"
       id="text170"
       xml:space="preserve" />
    <g
       inkscape:export-ydpi="300"
       inkscape:export-xdpi="300"
       transform="matrix(0.6218381,0,0,0.6218381,139.77259,51.537323)"
       id="g1011">
      <g
         id="g168"
         transform="matrix(1.2421998,0,0,1.1814223,-61.963412,-57.721642)">
        <path
           transform="matrix(0.26458333,0,0,0.26458333,252.53419,90.522822)"
           d="m 394.11523,193.83594 v 15.67968 h -29.30664 l 19.5,32.75 -19.5,32.75 h 56 v -14.67968 h 109.05664 109.05665 v 14.67968 h 56 l -19.5,-32.75 19.5,-32.75 h -29.30665 v -15.67968 h -135.75 z"
           style="color:#000000;font-style:normal;font-variant:normal;font-weight:normal;font-stretch:normal;font-size:medium;line-height:normal;font-family:sans-serif;font-variant-ligatures:normal;font-variant-position:normal;font-variant-caps:normal;font-variant-numeric:normal;font-variant-alternates:normal;font-variant-east-asian:normal;font-feature-settings:normal;font-variation-settings:normal;text-indent:0;text-align:start;text-decoration:none;text-decoration-line:none;text-decoration-style:solid;text-decoration-color:#000000;letter-spacing:normal;word-spacing:normal;text-transform:none;writing-mode:lr-tb;direction:ltr;text-orientation:mixed;dominant-baseline:auto;baseline-shift:baseline;text-anchor:start;white-space:normal;shape-padding:0;shape-margin:0;inline-size:0;clip-rule:nonzero;display:inline;overflow:visible;visibility:visible;isolation:auto;mix-blend-mode:normal;color-interpolation:sRGB;color-interpolation-filters:linearRGB;solid-color:#000000;solid-opacity:1;vector-effect:none;fill:#3daee9;fill-opacity:1;fill-rule:nonzero;stroke:none;stroke-width:6.99999;stroke-linecap:butt;stroke-linejoin:miter;stroke-miterlimit:4;stroke-dasharray:none;stroke-dashoffset:0;stroke-opacity:1;color-rendering:auto;image-rendering:auto;shape-rendering:auto;text-rendering:auto;enable-background:accumulate;stop-color:#000000"
           id="path1578-4" />
        <path
           d="m 355.88447,140.88254 v 4.14859 h -8.45737 l 5.71077,9.59114 -5.71077,9.59115 h 17.37207 v -3.884 h 27.92852 27.92853 v 3.884 h 17.37207 l -5.71076,-9.59115 5.71076,-9.59114 h -8.45737 v -4.14859 h -36.84323 z m 0.92604,0.92605 h 35.91718 35.91719 v 4.14858 h 7.75405 l -5.15937,8.6651 5.15937,8.66511 h -14.81666 l 7.32306,-3.884 h -7.32306 -28.85458 -28.85456 -7.32307 l 7.32307,3.884 h -14.81667 l 5.15937,-8.66511 -5.15937,-8.6651 h 7.75405 z"
           style="color:#000000;font-style:normal;font-variant:normal;font-weight:normal;font-stretch:normal;font-size:medium;line-height:normal;font-family:sans-serif;font-variant-ligatures:normal;font-variant-position:normal;font-variant-caps:normal;font-variant-numeric:normal;font-variant-alternates:normal;font-variant-east-asian:normal;font-feature-settings:normal;font-variation-settings:normal;text-indent:0;text-align:start;text-decoration:none;text-decoration-line:none;text-decoration-style:solid;text-decoration-color:#000000;letter-spacing:normal;word-spacing:normal;text-transform:none;writing-mode:lr-tb;direction:ltr;text-orientation:mixed;dominant-baseline:auto;baseline-shift:baseline;text-anchor:start;white-space:normal;shape-padding:0;shape-margin:0;inline-size:0;clip-rule:nonzero;display:inline;overflow:visible;visibility:visible;isolation:auto;mix-blend-mode:normal;color-interpolation:sRGB;color-interpolation-filters:linearRGB;solid-color:#000000;solid-opacity:1;vector-effect:none;fill:#000000;fill-opacity:1;fill-rule:nonzero;stroke:none;stroke-width:1.85208;stroke-linecap:butt;stroke-linejoin:miter;stroke-miterlimit:4;stroke-dasharray:none;stroke-dashoffset:0;stroke-opacity:1;color-rendering:auto;image-rendering:auto;shape-rendering:auto;text-rendering:auto;enable-background:accumulate;stop-color:#000000"
           id="path1580" />
      </g>
      <text
         xml:space="preserve"
         style="font-style:normal;font-variant:normal;font-weight:normal;font-stretch:normal;font-size:19.7556px;line-height:1.25;font-family:Ubuntu;-inkscape-font-specification:'Ubuntu, Normal';font-variant-ligatures:normal;font-variant-caps:normal;font-variant-numeric:normal;font-variant-east-asian:normal;fill:#000000;fill-opacity:1;stroke:none;stroke-width:0.370158;stroke-miterlimit:4;stroke-dasharray:none"
         x="383.41202"
         y="127.06052"
         id="text178"><tspan
           sodipodi:role="line"
           id="tspan176"
           x="383.41202"
           y="127.06052"
           style="font-style:normal;font-variant:normal;font-weight:normal;font-stretch:normal;font-size:19.7556px;font-family:Ubuntu;-inkscape-font-specification:'Ubuntu, Normal';font-variant-ligatures:normal;font-variant-caps:normal;font-variant-numeric:normal;font-variant-east-asian:normal;fill:#ffffff;stroke:#000000;stroke-width:0.370158;stroke-miterlimit:4;stroke-dasharray:none">SPECIALS</tspan></text>
    </g>
    <path
       d="m 382.80092,161.79768 h 84.53721 c 0.0557,0 0.10066,0.0451 0.10066,0.10092 v 20.58131 c 0,0.0559 -0.0449,0.1009 -0.10066,0.1009 h -84.53721 c -0.0557,0 -0.10056,-0.045 -0.10056,-0.1009 V 161.8986 c 0,-0.0559 0.0449,-0.10092 0.10056,-0.10092 z"
       style="fill:#ffffff;stroke:none;stroke-width:0.266056;stroke-miterlimit:4;stroke-dasharray:none"
       id="rect1003" />
  </g>
</svg>
